<svg xmlns="http://www.w3.org/2000/svg" xmlns:xlink="http://www.w3.org/1999/xlink" width="500" zoomAndPan="magnify" viewBox="0 0 375 374.999991" height="500" preserveAspectRatio="xMidYMid meet" version="1.0"><defs><g/><clipPath id="b1a961ea31"><path d="M 187.5 0 C 83.945312 0 0 83.945312 0 187.5 C 0 291.054688 83.945312 375 187.5 375 C 291.054688 375 375 291.054688 375 187.5 C 375 83.945312 291.054688 0 187.5 0 Z M 187.5 0 " clip-rule="nonzero"/></clipPath><clipPath id="ec8e2e8ad6"><path d="M 0 0 L 374.820312 0 L 374.820312 374.820312 L 0 374.820312 Z M 0 0 " clip-rule="nonzero"/></clipPath><clipPath id="e5df0b4605"><path d="M 187.496094 0 C 83.945312 0 0 83.945312 0 187.496094 C 0 291.046875 83.945312 374.992188 187.496094 374.992188 C 291.046875 374.992188 374.992188 291.046875 374.992188 187.496094 C 374.992188 83.945312 291.046875 0 187.496094 0 Z M 187.496094 0 " clip-rule="nonzero"/></clipPath><clipPath id="d028c17652"><path d="M 0.171875 187.503906 L 374.992188 187.503906 L 374.992188 375 L 0.171875 375 Z M 0.171875 187.503906 " clip-rule="nonzero"/></clipPath><clipPath id="48a849a583"><path d="M 110 27.042969 L 264 27.042969 L 264 180 L 110 180 Z M 110 27.042969 " clip-rule="nonzero"/></clipPath></defs><rect x="-37.5" width="450" fill="#ffffff" y="-37.499999" height="449.999989" fill-opacity="1"/><rect x="-37.5" width="450" fill="#ffffff" y="-37.499999" height="449.999989" fill-opacity="1"/><g clip-path="url(#b1a961ea31)"><rect x="-37.5" width="450" fill="#ffde59" y="-37.499999" height="449.999989" fill-opacity="1"/></g><g clip-path="url(#ec8e2e8ad6)"><g clip-path="url(#e5df0b4605)"><path stroke-linecap="butt" transform="matrix(1.01577, 0, 0, 1.01577, 0.0000045, 0)" fill="none" stroke-linejoin="miter" d="M 184.585189 0 C 82.642046 0 -0.00000443014 82.642051 -0.00000443014 184.585193 C -0.00000443014 286.528335 82.642046 369.170386 184.585189 369.170386 C 286.528331 369.170386 369.170382 286.528335 369.170382 184.585193 C 369.170382 82.642051 286.528331 0 184.585189 0 Z M 184.585189 0 " stroke="#000000" stroke-width="5.906849" stroke-opacity="1" stroke-miterlimit="4"/></g></g><g clip-path="url(#d028c17652)"><path fill="#000000" d="M 374.992188 187.839844 L 0.171875 187.839844 C 0.171875 190.914062 0.25 193.988281 0.402344 197.058594 C 0.550781 200.128906 0.777344 203.195312 1.082031 206.253906 C 1.382812 209.316406 1.757812 212.367188 2.210938 215.40625 C 2.660156 218.449219 3.183594 221.476562 3.785156 224.492188 C 4.382812 227.507812 5.054688 230.507812 5.800781 233.492188 C 6.546875 236.472656 7.367188 239.433594 8.257812 242.378906 C 9.148438 245.320312 10.109375 248.238281 11.144531 251.132812 C 12.179688 254.027344 13.28125 256.894531 14.457031 259.734375 C 15.628906 262.578125 16.875 265.386719 18.183594 268.164062 C 19.496094 270.945312 20.875 273.691406 22.320312 276.402344 C 23.769531 279.113281 25.28125 281.789062 26.855469 284.425781 C 28.433594 287.0625 30.074219 289.660156 31.777344 292.214844 C 33.484375 294.769531 35.25 297.285156 37.074219 299.753906 C 38.902344 302.222656 40.789062 304.644531 42.734375 307.023438 C 44.679688 309.398438 46.683594 311.726562 48.742188 314.003906 C 50.804688 316.28125 52.917969 318.507812 55.085938 320.679688 C 57.253906 322.855469 59.476562 324.972656 61.746094 327.039062 C 64.019531 329.105469 66.339844 331.109375 68.710938 333.0625 C 71.082031 335.011719 73.5 336.902344 75.964844 338.734375 C 78.425781 340.566406 80.933594 342.335938 83.484375 344.042969 C 86.03125 345.75 88.621094 347.394531 91.253906 348.976562 C 93.882812 350.554688 96.550781 352.070312 99.253906 353.519531 C 101.960938 354.96875 104.699219 356.351562 107.46875 357.664062 C 110.242188 358.980469 113.046875 360.226562 115.878906 361.402344 C 118.710938 362.578125 121.570312 363.683594 124.457031 364.71875 C 127.347656 365.753906 130.257812 366.71875 133.191406 367.613281 C 136.125 368.503906 139.082031 369.324219 142.054688 370.070312 C 145.03125 370.816406 148.019531 371.492188 151.027344 372.089844 C 154.035156 372.691406 157.054688 373.214844 160.089844 373.667969 C 163.121094 374.117188 166.164062 374.496094 169.214844 374.796875 C 172.269531 375.097656 175.324219 375.324219 178.386719 375.472656 C 181.449219 375.625 184.515625 375.699219 187.582031 375.699219 C 190.648438 375.699219 193.710938 375.625 196.777344 375.472656 C 199.839844 375.324219 202.894531 375.097656 205.945312 374.796875 C 209 374.496094 212.042969 374.117188 215.074219 373.667969 C 218.109375 373.214844 221.128906 372.691406 224.136719 372.089844 C 227.144531 371.492188 230.132812 370.816406 233.109375 370.070312 C 236.082031 369.324219 239.039062 368.503906 241.972656 367.613281 C 244.90625 366.71875 247.816406 365.753906 250.703125 364.71875 C 253.59375 363.683594 256.453125 362.578125 259.285156 361.402344 C 262.117188 360.226562 264.921875 358.980469 267.691406 357.664062 C 270.464844 356.351562 273.203125 354.96875 275.90625 353.519531 C 278.613281 352.070312 281.28125 350.554688 283.910156 348.976562 C 286.539062 347.394531 289.132812 345.75 291.679688 344.042969 C 294.230469 342.335938 296.738281 340.566406 299.199219 338.734375 C 301.664062 336.902344 304.082031 335.011719 306.453125 333.0625 C 308.820312 331.109375 311.144531 329.105469 313.414062 327.039062 C 315.6875 324.972656 317.910156 322.855469 320.078125 320.679688 C 322.246094 318.507812 324.359375 316.28125 326.421875 314.003906 C 328.480469 311.726562 330.484375 309.398438 332.429688 307.023438 C 334.375 304.644531 336.261719 302.222656 338.085938 299.753906 C 339.914062 297.285156 341.679688 294.769531 343.382812 292.214844 C 345.089844 289.660156 346.730469 287.0625 348.304688 284.425781 C 349.882812 281.789062 351.394531 279.113281 352.839844 276.402344 C 354.289062 273.691406 355.667969 270.945312 356.976562 268.164062 C 358.289062 265.386719 359.53125 262.578125 360.707031 259.734375 C 361.882812 256.894531 362.984375 254.027344 364.019531 251.132812 C 365.054688 248.238281 366.015625 245.320312 366.90625 242.378906 C 367.796875 239.433594 368.617188 236.472656 369.363281 233.492188 C 370.109375 230.507812 370.78125 227.507812 371.378906 224.492188 C 371.976562 221.476562 372.503906 218.449219 372.953125 215.40625 C 373.40625 212.367188 373.78125 209.316406 374.082031 206.253906 C 374.382812 203.195312 374.609375 200.128906 374.761719 197.058594 C 374.914062 193.988281 374.992188 190.914062 374.992188 187.839844 Z M 374.992188 187.839844 " fill-opacity="1" fill-rule="nonzero"/></g><g clip-path="url(#48a849a583)"><path fill="#000000" d="M 144.066406 59.9375 C 144.59375 59.347656 145.058594 58.714844 145.464844 58.035156 C 145.871094 57.355469 146.207031 56.644531 146.476562 55.898438 C 146.746094 55.15625 146.941406 54.394531 147.0625 53.613281 C 147.183594 52.832031 147.230469 52.046875 147.203125 51.253906 C 147.175781 50.464844 147.070312 49.683594 146.894531 48.914062 C 146.714844 48.144531 146.464844 47.398438 146.144531 46.675781 C 145.820312 45.953125 145.433594 45.265625 144.980469 44.617188 C 144.527344 43.96875 144.015625 43.371094 143.449219 42.820312 L 135.015625 34.402344 C 134.722656 34.105469 134.476562 33.773438 134.285156 33.40625 C 134.089844 33.042969 133.949219 32.652344 133.871094 32.246094 C 133.789062 31.839844 133.769531 31.429688 133.8125 31.015625 C 133.855469 30.601562 133.953125 30.203125 134.113281 29.820312 C 134.273438 29.4375 134.484375 29.085938 134.746094 28.761719 C 135.011719 28.441406 135.316406 28.164062 135.660156 27.933594 C 136.007812 27.703125 136.378906 27.527344 136.777344 27.40625 C 137.171875 27.28125 137.582031 27.222656 137.996094 27.21875 C 138.554688 27.207031 139.109375 27.214844 139.664062 27.238281 C 140.222656 27.257812 140.777344 27.296875 141.332031 27.355469 C 141.886719 27.410156 142.4375 27.480469 142.988281 27.570312 C 143.535156 27.660156 144.082031 27.765625 144.625 27.886719 C 145.171875 28.007812 145.710938 28.148438 146.246094 28.300781 C 146.777344 28.457031 147.308594 28.625 147.832031 28.8125 C 148.359375 28.996094 148.878906 29.199219 149.390625 29.417969 C 149.902344 29.632812 150.40625 29.867188 150.90625 30.113281 C 151.40625 30.363281 151.894531 30.625 152.378906 30.902344 C 152.859375 31.179688 153.335938 31.472656 153.800781 31.777344 C 154.265625 32.082031 154.71875 32.402344 155.164062 32.734375 C 155.609375 33.070312 156.046875 33.414062 156.472656 33.773438 C 156.894531 34.132812 157.308594 34.503906 157.710938 34.890625 C 158.113281 35.273438 158.503906 35.671875 158.882812 36.078125 C 159.261719 36.484375 159.628906 36.902344 159.980469 37.335938 C 160.332031 37.765625 160.671875 38.203125 161 38.652344 C 161.328125 39.105469 161.640625 39.5625 161.9375 40.03125 C 162.238281 40.503906 162.523438 40.980469 162.792969 41.464844 C 163.0625 41.953125 163.316406 42.445312 163.558594 42.945312 C 163.796875 43.449219 164.023438 43.957031 164.230469 44.472656 C 164.441406 44.988281 164.636719 45.507812 164.8125 46.035156 C 164.992188 46.5625 165.152344 47.09375 165.300781 47.628906 C 165.445312 48.164062 165.574219 48.707031 165.6875 49.25 C 165.800781 49.792969 165.898438 50.34375 165.976562 50.890625 C 166.058594 51.441406 166.121094 51.992188 166.167969 52.546875 C 166.214844 53.101562 166.246094 53.65625 166.257812 54.210938 C 166.273438 54.769531 166.269531 55.324219 166.25 55.878906 C 166.230469 56.433594 166.191406 56.988281 166.140625 57.542969 C 166.085938 58.09375 166.015625 58.648438 165.929688 59.195312 C 165.84375 59.746094 165.738281 60.289062 165.617188 60.832031 C 165.5 61.375 165.363281 61.914062 165.210938 62.449219 C 165.058594 62.984375 164.890625 63.515625 164.707031 64.039062 L 187.234375 86.53125 L 176.632812 97.113281 L 172.800781 93.289062 C 172.382812 92.871094 171.925781 92.496094 171.433594 92.167969 C 170.941406 91.839844 170.417969 91.5625 169.871094 91.335938 C 169.324219 91.109375 168.757812 90.9375 168.175781 90.824219 C 167.59375 90.707031 167.007812 90.648438 166.414062 90.648438 C 165.820312 90.648438 165.234375 90.707031 164.652344 90.824219 C 164.070312 90.9375 163.503906 91.109375 162.957031 91.335938 C 162.410156 91.5625 161.890625 91.839844 161.394531 92.171875 C 160.902344 92.5 160.445312 92.871094 160.027344 93.292969 L 159.960938 93.359375 L 147.664062 81.082031 C 147.136719 81.269531 146.601562 81.4375 146.066406 81.589844 C 145.527344 81.742188 144.984375 81.878906 144.4375 82 C 143.890625 82.117188 143.339844 82.222656 142.789062 82.308594 C 142.234375 82.394531 141.679688 82.464844 141.125 82.515625 C 140.566406 82.570312 140.007812 82.605469 139.449219 82.625 C 138.890625 82.644531 138.332031 82.648438 137.773438 82.632812 C 137.210938 82.617188 136.652344 82.585938 136.097656 82.539062 C 135.539062 82.488281 134.984375 82.425781 134.429688 82.34375 C 133.875 82.261719 133.324219 82.164062 132.777344 82.046875 C 132.230469 81.933594 131.6875 81.800781 131.148438 81.652344 C 130.609375 81.503906 130.074219 81.339844 129.542969 81.160156 C 129.015625 80.980469 128.492188 80.785156 127.972656 80.574219 C 127.457031 80.359375 126.945312 80.132812 126.441406 79.890625 C 125.9375 79.648438 125.441406 79.390625 124.953125 79.117188 C 124.464844 78.84375 123.984375 78.558594 123.511719 78.257812 C 123.042969 77.953125 122.582031 77.640625 122.128906 77.308594 C 121.675781 76.980469 121.234375 76.636719 120.804688 76.28125 C 120.375 75.925781 119.953125 75.554688 119.546875 75.175781 C 119.136719 74.792969 118.738281 74.398438 118.355469 73.992188 C 117.96875 73.589844 117.597656 73.171875 117.238281 72.742188 C 116.878906 72.316406 116.535156 71.875 116.199219 71.429688 C 115.867188 70.980469 115.546875 70.519531 115.242188 70.050781 C 114.9375 69.582031 114.648438 69.105469 114.371094 68.621094 C 114.09375 68.136719 113.835938 67.640625 113.585938 67.140625 C 113.339844 66.636719 113.109375 66.128906 112.894531 65.613281 C 112.679688 65.097656 112.480469 64.578125 112.296875 64.050781 C 112.113281 63.523438 111.945312 62.988281 111.792969 62.453125 C 111.640625 61.914062 111.507812 61.371094 111.386719 60.828125 C 111.269531 60.28125 111.167969 59.730469 111.082031 59.179688 C 110.996094 58.628906 110.929688 58.074219 110.875 57.519531 C 110.824219 56.960938 110.789062 56.40625 110.773438 55.847656 C 110.753906 55.289062 110.753906 54.730469 110.769531 54.171875 C 110.789062 53.765625 110.867188 53.371094 111.003906 52.984375 C 111.136719 52.601562 111.324219 52.246094 111.5625 51.914062 C 111.804688 51.585938 112.085938 51.296875 112.40625 51.050781 C 112.730469 50.800781 113.082031 50.605469 113.464844 50.460938 C 113.84375 50.3125 114.238281 50.226562 114.644531 50.195312 C 115.050781 50.164062 115.453125 50.191406 115.851562 50.277344 C 116.25 50.363281 116.628906 50.503906 116.988281 50.699219 C 117.34375 50.894531 117.667969 51.136719 117.953125 51.425781 L 126.746094 60.203125 C 127.320312 60.773438 127.941406 61.28125 128.613281 61.726562 C 129.289062 62.171875 130 62.546875 130.746094 62.847656 C 131.496094 63.152344 132.265625 63.378906 133.0625 63.527344 C 133.855469 63.675781 134.65625 63.742188 135.460938 63.730469 C 136.269531 63.71875 137.070312 63.625 137.855469 63.453125 C 138.644531 63.28125 139.410156 63.03125 140.148438 62.707031 C 140.886719 62.378906 141.585938 61.984375 142.246094 61.519531 C 142.90625 61.050781 143.511719 60.527344 144.066406 59.9375 Z M 262.863281 161.3125 C 262.652344 162.109375 262.402344 162.890625 262.113281 163.660156 C 261.824219 164.429688 261.496094 165.183594 261.132812 165.921875 C 260.769531 166.660156 260.371094 167.378906 259.933594 168.074219 C 259.5 168.773438 259.035156 169.449219 258.53125 170.101562 C 258.03125 170.753906 257.5 171.382812 256.9375 171.984375 C 256.375 172.582031 255.785156 173.15625 255.164062 173.695312 C 254.546875 174.238281 253.902344 174.75 253.234375 175.230469 C 252.5625 175.710938 251.871094 176.15625 251.160156 176.566406 C 250.445312 176.976562 249.714844 177.351562 248.964844 177.691406 C 248.214844 178.03125 247.449219 178.335938 246.667969 178.597656 C 245.890625 178.863281 245.097656 179.089844 244.296875 179.277344 C 243.496094 179.464844 242.683594 179.609375 241.867188 179.71875 C 241.050781 179.824219 240.234375 179.894531 239.410156 179.921875 C 238.585938 179.945312 237.761719 179.933594 236.941406 179.878906 C 236.121094 179.828125 235.300781 179.734375 234.488281 179.597656 C 233.675781 179.464844 232.875 179.292969 232.078125 179.078125 C 231.28125 178.867188 230.5 178.613281 229.726562 178.324219 C 228.957031 178.035156 228.203125 177.707031 227.464844 177.34375 C 226.726562 176.980469 226.007812 176.582031 225.308594 176.148438 C 224.605469 175.714844 223.929688 175.246094 223.277344 174.746094 C 222.625 174.246094 221.996094 173.714844 221.394531 173.152344 C 220.796875 172.589844 220.222656 172 219.679688 171.378906 C 219.136719 170.761719 218.625 170.117188 218.148438 169.449219 C 217.667969 168.78125 217.222656 168.089844 216.8125 167.378906 C 216.398438 166.667969 216.023438 165.933594 215.683594 165.1875 C 215.34375 164.4375 215.042969 163.671875 214.777344 162.894531 C 214.515625 162.117188 214.289062 161.324219 214.101562 160.523438 C 213.917969 159.722656 213.769531 158.917969 213.664062 158.101562 C 213.554688 157.285156 213.488281 156.46875 213.464844 155.644531 C 213.4375 154.824219 213.449219 154.003906 213.503906 153.183594 C 213.558594 152.363281 213.65625 151.546875 213.789062 150.734375 C 213.925781 149.925781 214.097656 149.121094 214.3125 148.328125 C 214.363281 148.144531 214.433594 147.972656 214.488281 147.789062 L 197.460938 130.792969 L 197.527344 130.726562 C 197.945312 130.308594 198.320312 129.851562 198.648438 129.359375 C 198.980469 128.867188 199.257812 128.347656 199.484375 127.796875 C 199.710938 127.25 199.878906 126.6875 199.996094 126.105469 C 200.109375 125.527344 200.167969 124.941406 200.167969 124.347656 C 200.167969 123.757812 200.109375 123.167969 199.996094 122.589844 C 199.878906 122.007812 199.710938 121.445312 199.484375 120.898438 C 199.257812 120.351562 198.980469 119.832031 198.648438 119.335938 C 198.320312 118.84375 197.945312 118.390625 197.527344 117.96875 L 193.699219 114.148438 L 204.300781 103.566406 L 231.546875 130.765625 C 232.613281 130.453125 233.695312 130.210938 234.792969 130.039062 C 235.886719 129.871094 236.992188 129.773438 238.101562 129.75 C 239.210938 129.726562 240.316406 129.777344 241.421875 129.898438 C 242.523438 130.023438 243.613281 130.21875 244.691406 130.484375 C 245.769531 130.753906 246.824219 131.089844 247.855469 131.496094 C 248.890625 131.902344 249.890625 132.378906 250.859375 132.917969 C 251.828125 133.457031 252.757812 134.058594 253.648438 134.722656 C 254.539062 135.386719 255.378906 136.105469 256.175781 136.878906 C 256.96875 137.652344 257.707031 138.476562 258.390625 139.347656 C 259.078125 140.222656 259.699219 141.136719 260.261719 142.089844 C 260.828125 143.046875 261.324219 144.035156 261.753906 145.054688 C 262.1875 146.074219 262.550781 147.121094 262.839844 148.191406 C 263.132812 149.257812 263.355469 150.34375 263.503906 151.441406 C 263.652344 152.539062 263.726562 153.640625 263.730469 154.75 C 263.730469 155.859375 263.660156 156.960938 263.515625 158.0625 C 263.371094 159.160156 263.152344 160.242188 262.863281 161.3125 Z M 256.269531 150.089844 L 243.328125 137.171875 L 225.644531 141.898438 L 220.90625 159.550781 L 233.851562 172.472656 L 251.53125 167.742188 Z M 263.222656 32.203125 C 263.503906 32.480469 263.664062 32.816406 263.710938 33.210938 C 263.753906 33.601562 263.671875 33.964844 263.460938 34.300781 L 248.644531 58.007812 C 248.363281 58.457031 247.960938 58.730469 247.441406 58.828125 L 238.84375 60.445312 L 185.046875 114.148438 L 193.199219 122.289062 C 193.472656 122.5625 193.683594 122.878906 193.832031 123.234375 C 193.980469 123.589844 194.054688 123.960938 194.054688 124.347656 C 194.054688 124.734375 193.980469 125.105469 193.832031 125.464844 C 193.683594 125.820312 193.472656 126.136719 193.199219 126.40625 L 190.246094 129.355469 C 190.058594 129.535156 189.847656 129.675781 189.613281 129.785156 C 189.378906 129.890625 189.132812 129.957031 188.875 129.984375 C 188.617188 130.011719 188.363281 129.996094 188.109375 129.9375 C 187.859375 129.878906 187.621094 129.78125 187.402344 129.644531 C 186.753906 129.277344 186.066406 129.023438 185.335938 128.882812 C 184.605469 128.742188 183.871094 128.722656 183.132812 128.820312 C 182.394531 128.921875 181.695312 129.136719 181.027344 129.464844 C 180.359375 129.796875 179.761719 130.222656 179.238281 130.75 C 178.710938 131.273438 178.28125 131.867188 177.953125 132.535156 C 177.621094 133.199219 177.40625 133.902344 177.304688 134.636719 C 177.207031 135.375 177.226562 136.105469 177.367188 136.835938 C 177.507812 137.566406 177.761719 138.253906 178.128906 138.898438 C 178.265625 139.117188 178.363281 139.355469 178.421875 139.605469 C 178.480469 139.855469 178.496094 140.113281 178.472656 140.367188 C 178.445312 140.625 178.378906 140.871094 178.269531 141.105469 C 178.164062 141.339844 178.019531 141.550781 177.84375 141.738281 L 145.582031 173.945312 C 145.109375 174.417969 144.613281 174.863281 144.097656 175.289062 C 143.582031 175.710938 143.046875 176.109375 142.488281 176.480469 C 141.933594 176.851562 141.363281 177.195312 140.773438 177.511719 C 140.183594 177.824219 139.578125 178.109375 138.960938 178.367188 C 138.34375 178.621094 137.714844 178.847656 137.078125 179.042969 C 136.4375 179.238281 135.789062 179.398438 135.132812 179.53125 C 134.480469 179.660156 133.816406 179.757812 133.152344 179.824219 C 132.488281 179.890625 131.820312 179.921875 131.152344 179.921875 C 130.484375 179.921875 129.816406 179.890625 129.152344 179.824219 C 128.484375 179.761719 127.824219 179.664062 127.167969 179.535156 C 126.515625 179.402344 125.867188 179.242188 125.226562 179.046875 C 124.585938 178.855469 123.957031 178.628906 123.339844 178.375 C 122.722656 178.121094 122.117188 177.835938 121.527344 177.519531 C 120.941406 177.207031 120.367188 176.863281 119.8125 176.492188 C 119.253906 176.121094 118.71875 175.726562 118.203125 175.300781 C 117.683594 174.878906 117.191406 174.429688 116.71875 173.960938 C 116.246094 173.488281 115.796875 172.992188 115.371094 172.476562 C 114.949219 171.960938 114.550781 171.425781 114.179688 170.871094 C 113.808594 170.316406 113.464844 169.746094 113.148438 169.15625 C 112.835938 168.566406 112.550781 167.964844 112.292969 167.347656 C 112.039062 166.730469 111.8125 166.105469 111.621094 165.464844 C 111.425781 164.828125 111.261719 164.179688 111.132812 163.523438 C 111.003906 162.871094 110.90625 162.210938 110.839844 161.546875 C 110.773438 160.882812 110.742188 160.21875 110.742188 159.550781 C 110.742188 158.882812 110.777344 158.214844 110.84375 157.550781 C 110.910156 156.886719 111.007812 156.230469 111.136719 155.574219 C 111.269531 154.921875 111.429688 154.273438 111.625 153.636719 C 111.820312 152.996094 112.046875 152.371094 112.300781 151.753906 C 112.558594 151.136719 112.84375 150.535156 113.160156 149.945312 C 113.476562 149.359375 113.820312 148.785156 114.191406 148.230469 C 114.5625 147.675781 114.960938 147.140625 115.386719 146.628906 C 115.808594 146.113281 116.257812 145.617188 116.734375 145.148438 L 148.996094 112.941406 C 149.183594 112.765625 149.394531 112.621094 149.628906 112.511719 C 149.863281 112.40625 150.109375 112.339844 150.367188 112.3125 C 150.625 112.289062 150.878906 112.304688 151.132812 112.363281 C 151.382812 112.421875 151.617188 112.519531 151.839844 112.652344 C 152.484375 113.019531 153.175781 113.273438 153.90625 113.414062 C 154.636719 113.554688 155.371094 113.578125 156.109375 113.476562 C 156.847656 113.378906 157.546875 113.164062 158.214844 112.832031 C 158.882812 112.503906 159.476562 112.074219 160.003906 111.550781 C 160.53125 111.023438 160.960938 110.429688 161.289062 109.761719 C 161.621094 109.097656 161.835938 108.398438 161.933594 107.660156 C 162.035156 106.925781 162.015625 106.191406 161.875 105.460938 C 161.734375 104.730469 161.476562 104.042969 161.109375 103.398438 C 160.972656 103.179688 160.875 102.945312 160.816406 102.691406 C 160.757812 102.441406 160.742188 102.1875 160.769531 101.929688 C 160.796875 101.671875 160.863281 101.425781 160.96875 101.191406 C 161.078125 100.957031 161.222656 100.746094 161.398438 100.558594 L 164.351562 97.609375 C 164.625 97.335938 164.941406 97.128906 165.300781 96.980469 C 165.65625 96.832031 166.027344 96.757812 166.414062 96.757812 C 166.800781 96.757812 167.175781 96.832031 167.53125 96.980469 C 167.890625 97.125 168.203125 97.335938 168.476562 97.609375 L 176.632812 105.75 L 230.433594 52.046875 L 232.050781 43.464844 C 232.148438 42.945312 232.421875 42.542969 232.871094 42.261719 L 256.621094 27.472656 C 256.957031 27.261719 257.320312 27.179688 257.714844 27.226562 C 258.105469 27.269531 258.445312 27.433594 258.722656 27.710938 Z M 120.6875 165.199219 L 157.640625 128.308594 L 151.632812 122.308594 L 122.742188 151.144531 C 122.292969 151.59375 121.878906 152.078125 121.507812 152.59375 C 121.132812 153.109375 120.804688 153.648438 120.519531 154.21875 C 120.234375 154.785156 119.996094 155.375 119.804688 155.980469 C 119.613281 156.585938 119.472656 157.203125 119.378906 157.832031 C 119.289062 158.460938 119.246094 159.09375 119.257812 159.730469 C 119.265625 160.363281 119.328125 160.996094 119.4375 161.621094 C 119.550781 162.246094 119.710938 162.859375 119.917969 163.460938 C 120.128906 164.058594 120.382812 164.640625 120.6875 165.199219 Z M 168.460938 139.109375 L 162.449219 133.105469 L 125.492188 169.996094 C 126.054688 170.300781 126.632812 170.554688 127.234375 170.761719 C 127.835938 170.972656 128.453125 171.132812 129.078125 171.242188 C 129.707031 171.355469 130.335938 171.414062 130.972656 171.425781 C 131.609375 171.433594 132.242188 171.394531 132.875 171.300781 C 133.503906 171.210938 134.121094 171.066406 134.730469 170.875 C 135.335938 170.6875 135.925781 170.449219 136.496094 170.164062 C 137.0625 169.878906 137.605469 169.550781 138.121094 169.179688 C 138.640625 168.804688 139.121094 168.394531 139.574219 167.945312 Z M 168.460938 139.109375 " fill-opacity="1" fill-rule="nonzero"/></g><g fill="#ffde59" fill-opacity="1"><g transform="translate(37.200976, 270.279095)"><g><path d="M 17.28125 0.59375 C 14.257812 0.59375 11.582031 -0.0664062 9.25 -1.390625 C 6.925781 -2.710938 5.109375 -4.535156 3.796875 -6.859375 C 2.484375 -9.191406 1.828125 -11.878906 1.828125 -14.921875 C 1.828125 -17.972656 2.484375 -20.660156 3.796875 -22.984375 C 5.109375 -25.316406 6.921875 -27.144531 9.234375 -28.46875 C 11.554688 -29.789062 14.222656 -30.453125 17.234375 -30.453125 C 19.765625 -30.453125 22.082031 -29.96875 24.1875 -29 C 26.289062 -28.039062 28.0625 -26.675781 29.5 -24.90625 C 30.9375 -23.144531 31.9375 -21.070312 32.5 -18.6875 L 25.515625 -18.6875 C 24.941406 -20.332031 23.925781 -21.628906 22.46875 -22.578125 C 21.019531 -23.535156 19.347656 -24.015625 17.453125 -24.015625 C 15.765625 -24.015625 14.257812 -23.628906 12.9375 -22.859375 C 11.625 -22.097656 10.597656 -21.03125 9.859375 -19.65625 C 9.117188 -18.289062 8.75 -16.710938 8.75 -14.921875 C 8.75 -13.140625 9.117188 -11.5625 9.859375 -10.1875 C 10.597656 -8.820312 11.617188 -7.753906 12.921875 -6.984375 C 14.234375 -6.222656 15.726562 -5.84375 17.40625 -5.84375 C 19.363281 -5.84375 21.082031 -6.347656 22.5625 -7.359375 C 24.039062 -8.367188 25.09375 -9.726562 25.71875 -11.4375 L 32.71875 -11.4375 C 32.226562 -9.019531 31.257812 -6.90625 29.8125 -5.09375 C 28.363281 -3.289062 26.566406 -1.890625 24.421875 -0.890625 C 22.273438 0.0976562 19.894531 0.59375 17.28125 0.59375 Z M 17.28125 0.59375 "/></g></g></g><g fill="#ffde59" fill-opacity="1"><g transform="translate(71.616631, 270.279095)"><g><path d="M 3.578125 0 L 3.578125 -29.859375 L 23.203125 -29.859375 L 23.203125 -24.140625 L 10.328125 -24.140625 L 10.328125 -17.953125 L 22.046875 -17.953125 L 22.046875 -12.28125 L 10.328125 -12.28125 L 10.328125 -5.765625 L 23.671875 -5.765625 L 23.671875 0 Z M 3.578125 0 "/></g></g></g><g fill="#ffde59" fill-opacity="1"><g transform="translate(97.460364, 270.279095)"><g><path d="M 3.578125 0 L 3.578125 -29.859375 L 9.34375 -29.859375 L 22.515625 -11.6875 L 22.515625 -29.859375 L 29.265625 -29.859375 L 29.265625 0 L 23.5 0 L 10.328125 -18.296875 L 10.328125 0 Z M 3.578125 0 "/></g></g></g><g fill="#ffde59" fill-opacity="1"><g transform="translate(130.298101, 270.279095)"><g><path d="M 10.75 0 L 10.75 -23.5 L 1.28125 -23.5 L 1.28125 -29.859375 L 27 -29.859375 L 27 -23.5 L 17.53125 -23.5 L 17.53125 0 Z M 10.75 0 "/></g></g></g><g fill="#ffde59" fill-opacity="1"><g transform="translate(158.572669, 270.279095)"><g><path d="M 3.578125 0 L 3.578125 -29.859375 L 16.34375 -29.859375 C 18.613281 -29.859375 20.585938 -29.445312 22.265625 -28.625 C 23.941406 -27.800781 25.234375 -26.617188 26.140625 -25.078125 C 27.054688 -23.546875 27.515625 -21.710938 27.515625 -19.578125 C 27.515625 -17.390625 27.015625 -15.503906 26.015625 -13.921875 C 25.023438 -12.347656 23.632812 -11.160156 21.84375 -10.359375 L 28.03125 0 L 20.171875 0 L 14.84375 -9.296875 L 10.359375 -9.296875 L 10.359375 0 Z M 10.28125 -15.015625 L 15.4375 -15.015625 C 17.113281 -15.015625 18.398438 -15.40625 19.296875 -16.1875 C 20.191406 -16.96875 20.640625 -18.082031 20.640625 -19.53125 C 20.640625 -20.988281 20.191406 -22.109375 19.296875 -22.890625 C 18.398438 -23.671875 17.113281 -24.0625 15.4375 -24.0625 L 10.28125 -24.0625 Z M 10.28125 -15.015625 "/></g></g></g><g fill="#ffde59" fill-opacity="1"><g transform="translate(188.595742, 270.279095)"><g><path d="M 0.390625 0 L 12.25 -29.859375 L 18.890625 -29.859375 L 30.75 0 L 23.5 0 L 21.5 -5.15625 L 9.640625 -5.15625 L 7.640625 0 Z M 11.390625 -10.5 L 19.796875 -10.5 L 15.5625 -21.40625 Z M 11.390625 -10.5 "/></g></g></g><g fill="#ffde59" fill-opacity="1"><g transform="translate(219.727628, 270.279095)"><g><path d="M 3.578125 0 L 3.578125 -29.859375 L 10.359375 -29.859375 L 10.359375 -6.359375 L 23.421875 -6.359375 L 23.421875 0 Z M 3.578125 0 "/></g></g></g><g fill="#ffde59" fill-opacity="1"><g transform="translate(244.291961, 270.279095)"><g/></g></g><g fill="#ffde59" fill-opacity="1"><g transform="translate(254.31387, 270.279095)"><g><path d="M 13.984375 0.59375 C 11.484375 0.59375 9.328125 0.179688 7.515625 -0.640625 C 5.710938 -1.460938 4.320312 -2.632812 3.34375 -4.15625 C 2.363281 -5.675781 1.875 -7.460938 1.875 -9.515625 L 8.53125 -9.515625 C 8.53125 -8.085938 9.019531 -6.972656 10 -6.171875 C 10.976562 -5.378906 12.296875 -4.984375 13.953125 -4.984375 C 15.367188 -4.984375 16.488281 -5.257812 17.3125 -5.8125 C 18.144531 -6.375 18.5625 -7.148438 18.5625 -8.140625 C 18.5625 -9.191406 18.0625 -10.046875 17.0625 -10.703125 C 16.0625 -11.359375 14.507812 -11.914062 12.40625 -12.375 C 8.914062 -13.113281 6.328125 -14.234375 4.640625 -15.734375 C 2.960938 -17.242188 2.125 -19.207031 2.125 -21.625 C 2.125 -24.351562 3.117188 -26.503906 5.109375 -28.078125 C 7.109375 -29.660156 9.828125 -30.453125 13.265625 -30.453125 C 15.628906 -30.453125 17.675781 -30.046875 19.40625 -29.234375 C 21.144531 -28.429688 22.488281 -27.296875 23.4375 -25.828125 C 24.394531 -24.359375 24.875 -22.617188 24.875 -20.609375 L 18.34375 -20.609375 C 18.34375 -21.941406 17.898438 -22.988281 17.015625 -23.75 C 16.140625 -24.519531 14.914062 -24.90625 13.34375 -24.90625 C 11.925781 -24.90625 10.804688 -24.628906 9.984375 -24.078125 C 9.160156 -23.523438 8.75 -22.75 8.75 -21.75 C 8.75 -20.84375 9.203125 -20.078125 10.109375 -19.453125 C 11.015625 -18.828125 12.609375 -18.242188 14.890625 -17.703125 C 18.609375 -16.816406 21.289062 -15.632812 22.9375 -14.15625 C 24.59375 -12.675781 25.421875 -10.757812 25.421875 -8.40625 C 25.421875 -5.59375 24.40625 -3.390625 22.375 -1.796875 C 20.34375 -0.203125 17.546875 0.59375 13.984375 0.59375 Z M 13.984375 0.59375 "/></g></g></g><g fill="#ffde59" fill-opacity="1"><g transform="translate(281.650212, 270.279095)"><g><path d="M 15.78125 0.59375 C 13.195312 0.59375 10.972656 0.078125 9.109375 -0.953125 C 7.242188 -1.992188 5.804688 -3.472656 4.796875 -5.390625 C 3.785156 -7.316406 3.28125 -9.613281 3.28125 -12.28125 L 3.28125 -29.859375 L 10.0625 -29.859375 L 10.0625 -12.75 C 10.0625 -8.144531 11.96875 -5.84375 15.78125 -5.84375 C 19.59375 -5.84375 21.5 -8.144531 21.5 -12.75 L 21.5 -29.859375 L 28.28125 -29.859375 L 28.28125 -12.28125 C 28.28125 -9.613281 27.773438 -7.316406 26.765625 -5.390625 C 25.753906 -3.472656 24.316406 -1.992188 22.453125 -0.953125 C 20.597656 0.078125 18.375 0.59375 15.78125 0.59375 Z M 15.78125 0.59375 "/></g></g></g><g fill="#ffde59" fill-opacity="1"><g transform="translate(313.208564, 270.279095)"><g><path d="M 3.578125 0 L 3.578125 -29.859375 L 10.359375 -29.859375 L 10.359375 -6.359375 L 23.421875 -6.359375 L 23.421875 0 Z M 3.578125 0 "/></g></g></g></svg>